<svg version="1.1" xmlns="http://www.w3.org/2000/svg" xmlns:xlink="http://www.w3.org/1999/xlink" width="321.2221374511719" height="170.41563415527344"><defs></defs><g transform="translate(-201.66290283203125,157.572021484375)"><rect fill="rgb(255,255,255)" stroke="none" x="0" y="0" width="321.2221374511719" height="170.41563415527344" fill-opacity="0" transform="translate(201.66290283203125,-157.572021484375)"></rect><g transform="translate(178.34299013884993,85.69933036251777) rotate(-20,0,0) translate(-178.34299013884993,-85.69933036251777) matrix(1,0,-0.5773502691896257,1,178.34299013884993,85.69933036251777)"><path fill="rgb(219,201,134)" fill-opacity="0.6509803921568628" d="M77.24-61.04L77.24-61.04Q77.37-60.97 77.37-60.78L77.37-60.78Q77.24-60.32 76.85-60.58L76.85-60.58Q71.19-64.55 71.19-72.22L71.19-72.22Q71.19-75.40 72.46-79.01Q73.73-82.62 76.98-87.69Q80.23-92.76 83.28-96.46Q86.34-100.17 89.16-103.39Q91.99-106.60 92.12-106.86L92.12-106.86Q92.90-108.03 93.16-106.60L93.16-106.60Q93.23-106.15 93.23-105.56Q93.23-104.98 92.90-104.52L92.90-104.52Q88.87-99.58 85.10-93.34L85.10-93.34Q78.80-82.81 76.07-74.17L76.07-74.17Q75.03-70.72 75.03-67.02Q75.03-63.31 77.24-61.04ZM23.16-83.79L23.16-83.79Q33.82-88.21 48.83-88.21L48.83-88.21Q56.24-88.21 63.65-85.87L63.65-85.87Q65.41-87.69 68.85-91.30Q72.30-94.90 74.31-96.98L74.31-96.98Q80.16-103.03 83.87-105.89L83.87-105.89Q90.11-110.76 95.31-110.76L95.31-110.76Q97.65-110.76 99.60-110.02Q101.55-109.27 101.94-108.85Q102.33-108.42 102.33-108.36Q102.33-108.29 102.20-108.13Q102.07-107.97 101.81-108.29L101.81-108.29Q100.57-109.46 97.00-109.46L97.00-109.46Q90.95-109.46 84.26-104.20L84.26-104.20Q79.45-100.30 76.26-97.08Q73.08-93.86 69.60-90.26Q66.12-86.65 64.89-85.41L64.89-85.41Q71.39-83.01 71.97-79.11L71.97-79.11Q72.04-78.72 71.94-78.59Q71.84-78.46 71.68-78.59Q71.52-78.72 71.45-78.98L71.45-78.98Q70.93-80.21 67.81-80.93L67.81-80.93Q65.02-81.58 61.38-81.90L61.38-81.90Q48.18-69.16 38.04-65.72L38.04-65.72Q32.52-63.77 27.58-63.77L27.58-63.77Q18.74-63.77 15.32-66.40Q11.91-69.03 11.91-72.22L11.91-72.22Q11.91-73.45 12.37-74.75L12.37-74.75Q14.32-80.08 23.16-83.79ZM55.72-82.16L55.72-82.16Q47.08-82.16 37.52-80.34L37.52-80.34Q22.83-77.74 18.41-72.61L18.41-72.61Q17.05-70.98 17.05-69.55L17.05-69.55Q17.05-67.86 18.87-66.50L18.87-66.50Q21.01-64.87 26.31-64.87Q31.61-64.87 37.78-66.63L37.78-66.63Q47.01-69.49 59.75-82.03L59.75-82.03Q57.74-82.16 55.72-82.16ZM98.04-81.38L98.04-81.38Q98.95-82.42 98.95-83.01Q98.95-83.59 97.74-83.59Q96.54-83.59 93.94-81.32L93.94-81.32Q91.54-79.24 88.12-74.36Q84.71-69.49 83.18-67.77Q81.66-66.04 80.49-66.04L80.49-66.04Q80.36-66.04 80.23-66.04L80.23-66.04Q78.54-66.04 76.91-67.41L76.91-67.41Q77.30-67.99 78.80-69.94L78.80-69.94Q82.11-73.97 84.58-77.74L84.58-77.74Q81.79-74.95 79.84-73.39L79.84-73.39Q79.19-72.87 79.09-73.32Q78.99-73.78 79.38-74.14Q79.77-74.49 80.68-75.31Q81.59-76.12 81.88-76.38Q82.18-76.64 82.99-77.39Q83.80-78.13 84.19-78.59L84.19-78.59Q86.01-80.73 86.86-82.23L86.86-82.23Q87.18-83.01 87.15-83.76Q87.12-84.50 86.82-84.73Q86.53-84.96 86.60-85.28L86.60-85.28Q86.60-85.80 87.12-85.80L87.12-85.80Q87.38-85.80 87.70-85.67L87.70-85.67Q89.72-84.76 89.72-82.07Q89.72-79.37 88.55-76.31L88.55-76.31Q91.08-79.63 92.38-81.06L92.38-81.06Q95.76-84.83 99.01-84.83L99.01-84.83Q102.20-84.83 102.78-82.10L102.78-82.10Q102.85-81.71 102.85-80.90Q102.85-80.08 102.23-78.72Q101.61-77.35 99.34-74.23Q97.06-71.11 96.70-70.30Q96.35-69.49 96.48-69.10Q96.61-68.71 97.06-68.64L97.06-68.64Q97.84-68.51 99.73-69.68L99.73-69.68Q102.39-71.57 106.62-75.47L106.62-75.47Q107.33-76.18 107.33-75.34L107.33-75.34Q107.33-75.01 107.01-74.69L107.01-74.69Q100.70-68.84 97.65-67.41L97.65-67.41Q94.07-65.59 92.06-66.82L92.06-66.82Q90.82-67.60 90.82-69.00Q90.82-70.40 91.34-71.83L91.34-71.83Q92.51-75.14 98.04-81.38ZM125.08-69.81L125.08-69.81Q123.84-66.43 123.84-64.29Q123.84-62.14 124.75-61.04L124.75-61.04Q124.95-60.78 124.82-60.68Q124.69-60.58 124.62-60.58Q124.56-60.58 124.43-60.65L124.43-60.65Q122.35-62.34 122.35-65.69Q122.35-69.03 123.71-73.39L123.71-73.39Q121.05-69.94 118.45-67.73L118.45-67.73Q115.33-65.13 112.08-65.13L112.08-65.13Q110.00-65.13 108.18-66.53Q106.36-67.93 106.36-71.11L106.36-71.11Q106.29-72.67 106.94-74.69L106.94-74.69Q105.64-73.52 105.28-73.26Q104.93-73.00 104.80-73.26Q104.67-73.52 104.67-73.75Q104.67-73.97 105.09-74.33Q105.51-74.69 109.61-79.11L109.61-79.11Q112.01-81.77 115.33-83.27Q118.64-84.76 121.63-84.76L121.63-84.76Q124.36-84.76 125.63-83.82Q126.90-82.88 126.90-81.45L126.90-81.45Q129.24-86.39 131.93-90.84Q134.63-95.29 136.13-96.98L136.13-96.98Q137.75-98.80 140.22-98.80Q142.69-98.80 144.25-97.44L144.25-97.44Q142.89-96.59 138.92-91.85Q134.96-87.10 131.19-81.68Q127.42-76.25 125.08-69.81ZM125.60-82.10L125.60-82.10Q125.60-83.40 123.97-83.40L123.97-83.40Q123.13-83.40 121.76-82.88L121.76-82.88Q118.71-81.71 115.72-78.33L115.72-78.33Q112.01-74.10 112.01-70.27L112.01-70.27Q112.01-67.99 113.51-67.54L113.51-67.54Q113.83-67.41 114.16-67.41L114.16-67.41Q116.82-67.41 122.09-72.74L122.09-72.74Q123.52-74.10 124.49-75.66L124.49-75.66Q125.01-77.16 125.86-79.11L125.86-79.11Q125.27-78.72 124.91-79.01Q124.56-79.30 125.08-80.31Q125.60-81.32 125.60-82.10ZM149.71-79.82L149.71-79.82Q146.85-76.51 145.06-73.75Q143.28-70.98 143.28-69.85Q143.28-68.71 144.61-68.71Q145.94-68.71 150.07-71.37Q154.20-74.04 157.71-77.35L157.71-77.35Q158.03-77.68 158.29-77.61Q158.55-77.55 158.55-77.29Q158.55-77.03 158.29-76.70L158.29-76.70Q149.91-69.03 145.49-67.08L145.49-67.08Q143.54-66.30 142.69-66.30L142.69-66.30Q139.57-66.30 138.43-67.34Q137.30-68.38 137.30-69.62L137.30-69.62Q137.30-72.09 138.27-73.39L138.27-73.39Q141.46-77.87 143.34-80.99L143.34-80.99Q143.93-81.90 143.11-82.26Q142.30-82.62 141.10-82.62Q139.90-82.62 139.83-82.68L139.83-82.68Q135.48-76.83 131.19-73.45L131.19-73.45Q130.67-73.00 130.60-73.45L130.60-73.45Q130.60-73.97 131.32-74.69L131.32-74.69Q135.87-78.59 138.79-82.94L138.79-82.94Q138.21-83.33 138.21-84.02Q138.21-84.70 138.30-85.67Q138.40-86.65 139.31-88.27L139.31-88.27Q140.87-91.00 142.56-91.00L142.56-91.00Q143.99-91.00 143.99-89.44L143.99-89.44Q143.99-87.30 141.98-84.76L141.98-84.76Q141.00-83.59 140.16-83.07L140.16-83.07Q142.56-83.85 147.18-83.85L147.18-83.85Q149.45-83.85 150.43-82.16L150.43-82.16Q150.56-81.90 150.56-81.38Q150.56-80.86 149.71-79.82ZM170.45-76.96L170.45-76.96Q173.89-78.85 173.89-80.80Q173.89-82.75 171.55-82.75L171.55-82.75Q170.45-82.75 169.21-82.16L169.21-82.16Q166.48-80.93 163.95-77.87L163.95-77.87Q160.83-74.10 160.83-70.85L160.83-70.85Q160.83-69.62 161.51-68.55Q162.19-67.47 163.95-67.47L163.95-67.47Q167.00-67.47 171.68-70.69Q176.36-73.91 179.74-77.16L179.74-77.16Q180.52-77.94 180.52-77.22L180.52-77.22Q180.52-76.77 180.13-76.44L180.13-76.44Q177.73-74.23 176.91-73.49Q176.10-72.74 173.70-70.82Q171.29-68.90 169.80-68.12L169.80-68.12Q165.18-65.72 161.96-65.72Q158.75-65.72 156.89-67.18Q155.04-68.64 155.04-71.24L155.04-71.24Q155.04-76.77 159.98-80.77Q164.92-84.76 170.32-84.76L170.32-84.76Q173.96-84.76 175.19-83.20L175.19-83.20Q175.71-82.42 175.71-81.55Q175.71-80.67 175.13-79.63L175.13-79.63Q173.96-77.61 170.74-76.09Q167.52-74.56 164.66-74.56L164.66-74.56Q163.56-74.56 163.46-74.75Q163.36-74.95 163.62-75.05Q163.88-75.14 164.34-75.14L164.34-75.14Q166.94-75.14 170.45-76.96ZM201.39-76.83Q200.67-75.99 199.92-75.01Q199.18-74.04 198.04-72.35Q196.90-70.66 196.90-69.49Q196.90-68.32 197.91-68.32Q198.92-68.32 201.19-69.55L201.19-69.55Q205.74-72.15 211.27-77.35L211.27-77.35Q211.92-78.00 212.11-77.55L212.11-77.55Q212.11-77.48 212.11-77.29Q212.11-77.09 211.85-76.83L211.85-76.83Q200.67-66.30 195.60-66.30L195.60-66.30Q194.11-66.30 193.10-67.31Q192.09-68.32 192.09-69.68L192.09-69.68Q192.09-71.05 193.26-73.84L193.26-73.84Q190.34-70.20 186.99-68.22Q183.64-66.24 181.76-66.24Q179.87-66.24 178.54-67.38Q177.21-68.51 177.21-70.20L177.21-70.20Q177.21-75.01 181.50-79.63L181.50-79.63Q184.75-83.07 189.56-84.50L189.56-84.50Q191.70-85.22 193.75-85.22Q195.80-85.22 197.71-84.08Q199.63-82.94 200.15-81.38L200.15-81.38Q202.10-81.38 202.95-79.95L202.95-79.95Q203.08-79.76 203.08-79.30Q203.08-78.85 202.59-78.26Q202.10-77.68 201.39-76.83ZM196.64-83.27L196.64-83.27Q195.28-83.27 193.39-82.42L193.39-82.42Q190.08-80.99 187.09-77.48L187.09-77.48Q182.34-71.89 182.34-69.29L182.34-69.29Q182.34-67.93 183.45-67.93L183.45-67.93Q184.36-67.93 186.47-69.10Q188.58-70.27 192.03-73.71L192.03-73.71Q192.22-73.91 193.52-75.14Q194.82-76.38 195.73-77.29L195.73-77.29Q198.79-80.47 198.79-81.87Q198.79-83.27 196.64-83.27ZM278.74-100.27Q278.74-94.32 276.10-88.76Q273.47-83.20 268.92-77.42L268.92-77.42Q263.20-70.20 255.53-66.04L255.53-66.04Q251.50-63.90 247.21-63.90L247.21-63.90Q241.43-63.90 237.98-67.99L237.98-67.99Q235.06-71.44 235.06-76.12L235.06-76.12Q235.06-82.62 239.80-90.29L239.80-90.29Q243.31-95.88 248.41-100.27Q253.52-104.65 257.61-106.02L257.61-106.02Q260.28-106.80 262.68-106.80Q265.09-106.80 266.84-105.17L266.84-105.17Q268.79-103.42 268.79-99.97L268.79-99.97Q268.79-97.96 268.08-95.81L268.08-95.81Q267.88-95.03 267.62-95.55L267.62-95.55Q267.49-95.81 267.69-96.56Q267.88-97.31 267.88-98.15L267.88-98.15Q267.88-101.01 264.50-101.01L264.50-101.01Q259.63-101.01 252.38-96.33Q245.13-91.65 241.49-86.65L241.49-86.65Q236.49-79.76 236.49-74.23L236.49-74.23Q236.49-68.19 243.25-67.08L243.25-67.08Q244.22-66.89 245.26-66.89L245.26-66.89Q248.84-66.89 253.91-68.71L253.91-68.71Q263.01-71.96 268.73-78.98L268.73-78.98Q276.20-88.27 276.20-99.78L276.20-99.78Q276.20-104.07 275.26-106.12Q274.32-108.16 273.47-108.59Q272.63-109.01 271.98-108.81Q271.33-108.62 271.39-108.94L271.39-108.94Q271.46-109.59 273.02-109.59Q274.58-109.59 276.14-108.29L276.14-108.29Q278.74-106.21 278.74-100.27ZM289.66-79.82L289.66-79.82Q286.80-76.51 285.01-73.75Q283.22-70.98 283.22-69.85Q283.22-68.71 284.55-68.71Q285.89-68.71 290.01-71.37Q294.14-74.04 297.65-77.35L297.65-77.35Q297.98-77.68 298.24-77.61Q298.50-77.55 298.50-77.29Q298.50-77.03 298.24-76.70L298.24-76.70Q289.85-69.03 285.43-67.08L285.43-67.08Q283.48-66.30 282.64-66.30L282.64-66.30Q279.52-66.30 278.38-67.34Q277.24-68.38 277.24-69.62L277.24-69.62Q277.24-72.09 278.22-73.39L278.22-73.39Q281.40-77.87 283.29-80.99L283.29-80.99Q283.87-81.90 283.06-82.26Q282.25-82.62 281.04-82.62Q279.84-82.62 279.78-82.68L279.78-82.68Q275.42-76.83 271.13-73.45L271.13-73.45Q270.61-73.00 270.55-73.45L270.55-73.45Q270.55-73.97 271.26-74.69L271.26-74.69Q275.81-78.59 278.74-82.94L278.74-82.94Q278.15-83.33 278.15-84.02Q278.15-84.70 278.25-85.67Q278.35-86.65 279.26-88.27L279.26-88.27Q280.82-91.00 282.51-91.00L282.51-91.00Q283.94-91.00 283.94-89.44L283.94-89.44Q283.94-87.30 281.92-84.76L281.92-84.76Q280.95-83.59 280.10-83.07L280.10-83.07Q282.51-83.85 287.12-83.85L287.12-83.85Q289.40-83.85 290.37-82.16L290.37-82.16Q290.50-81.90 290.50-81.38Q290.50-80.86 289.66-79.82ZM306.88-89.12Q308.31-91.26 309.19-92.53Q310.07-93.80 310.59-94.38Q311.11-94.97 312.93-95.39Q314.75-95.81 316.44-95.81Q318.13-95.81 318.13-95.46Q318.13-95.10 315.33-92.43Q312.54-89.77 308.83-85.35L308.83-85.35Q313.25-84.63 314.62-82.55L314.62-82.55Q315.14-81.64 314.78-81.38Q314.42-81.12 313.97-81.58L313.97-81.58Q312.60-82.94 309.61-82.94L309.61-82.94Q308.31-82.94 306.69-82.68L306.69-82.68Q301.42-75.92 300.06-71.63L300.06-71.63Q299.60-70.40 299.60-69.55L299.60-69.55Q299.60-67.28 301.49-67.28L301.49-67.28Q303.50-67.28 307.14-70.07L307.14-70.07Q311.89-73.65 315.40-77.16L315.40-77.16Q316.05-77.87 316.24-77.48Q316.44-77.09 315.92-76.64L315.92-76.64Q310.33-70.79 306.52-68.03Q302.72-65.26 299.54-65.26L299.54-65.26Q295.18-65.26 295.18-69.88L295.18-69.88Q295.18-72.09 296.42-75.14L296.42-75.14L295.25-74.04Q294.73-73.52 294.50-73.75Q294.27-73.97 294.27-74.17Q294.27-74.36 294.79-74.82L294.79-74.82Q299.54-78.98 301.29-81.12L301.29-81.12Q300.06-80.67 299.63-81.06Q299.21-81.45 299.05-82.10Q298.89-82.75 299.70-83.69Q300.51-84.63 302.10-85.06Q303.70-85.48 304.48-85.54L304.48-85.54Q305.45-86.97 306.88-89.12ZM327.81-76.83Q327.16-75.86 326.06-74.36Q324.95-72.87 323.98-71.50Q323.00-70.14 323.00-69.46Q323.00-68.77 323.65-68.77L323.65-68.77Q324.82-68.77 327.10-70.85L327.10-70.85L329.18-72.87Q332.36-76.31 334.77-79.50L334.77-79.50L337.17-82.42Q338.28-83.66 339.51-83.72L339.51-83.72Q341.40-83.72 343.02-82.29L343.02-82.29Q342.63-81.71 341.75-80.60Q340.88-79.50 340.00-78.36Q339.12-77.22 337.98-75.73Q336.85-74.23 336.00-72.93Q335.16-71.63 334.28-70.17Q333.40-68.71 333.01-67.67L333.01-67.67Q332.04-64.81 333.08-64.09L333.08-64.09Q333.40-63.77 332.95-63.77L332.95-63.77Q332.82-63.77 332.69-63.83L332.69-63.83Q330.22-64.68 330.22-67.86Q330.22-71.05 332.30-75.40L332.30-75.40Q325.34-66.43 320.99-66.43L320.99-66.43Q317.67-66.43 317.67-69.55L317.67-69.55Q317.67-70.66 318.13-72.15L318.13-72.15Q319.10-75.08 324.76-81.38L324.76-81.38Q325.47-82.23 325.47-82.81Q325.47-83.40 324.69-83.40Q323.91-83.40 322.35-82.23Q320.79-81.06 318.00-78.43Q315.20-75.79 314.58-75.27Q313.97-74.75 313.97-75.53L313.97-75.53Q313.97-75.92 315.20-76.93Q316.44-77.94 318.58-80.18Q320.73-82.42 322.32-83.63Q323.91-84.83 325.99-84.83L325.99-84.83Q328.33-84.83 329.18-83.07L329.18-83.07Q329.50-82.42 329.50-81.38Q329.50-80.34 328.98-79.08Q328.46-77.81 327.81-76.83Z"></path></g></g></svg>